<?xml version="1.0" standalone="no"?>
<!DOCTYPE svg PUBLIC "-//W3C//DTD SVG 20010904//EN"
 "http://www.w3.org/TR/2001/REC-SVG-20010904/DTD/svg10.dtd">
<svg version="1.0" xmlns="http://www.w3.org/2000/svg"
 width="612.000000pt" height="310.000000pt" viewBox="0 0 612.000000 310.000000"
 preserveAspectRatio="xMidYMid meet">

<g transform="translate(0.000000,310.000000) scale(0.100000,-0.100000)"
fill="#000000" stroke="none">
<path d="M3780 3013 c-47 -102 -620 -1418 -620 -1425 0 -5 57 -7 127 -6 l127
3 74 173 75 172 339 -2 339 -3 237 -550 238 -550 532 -3 c293 -1 532 1 531 5
0 5 -22 55 -48 113 l-47 105 -404 2 -405 2 -67 158 -66 158 399 3 c219 1 399
6 398 10 0 4 -22 54 -48 112 l-47 105 -403 5 -404 5 -68 160 c-38 87 -69 160
-69 162 0 2 182 4 404 5 l404 3 -47 105 -47 105 -407 5 -408 5 -184 425 c-101
234 -189 433 -194 443 -10 14 -27 17 -119 17 l-109 0 -13 -27z m244 -576 c64
-148 116 -273 116 -278 0 -11 -480 -12 -480 -1 -1 18 236 560 242 554 3 -4 59
-128 122 -275z"/>
<path d="M0 2385 l0 -615 1357 2 1357 3 264 540 c145 297 278 573 297 613 l34
72 -1655 0 -1654 0 0 -615z"/>
<path d="M634 1319 c-6 -10 -194 -450 -194 -455 0 -2 23 -4 51 -4 l50 0 21 50
21 51 100 -3 99 -3 18 -45 18 -45 55 -3 55 -3 -97 228 -97 228 -47 6 c-27 3
-50 2 -53 -2z m74 -181 c11 -29 23 -61 27 -70 6 -16 0 -18 -55 -18 -34 0 -60
3 -58 8 2 4 14 35 28 70 14 34 28 62 31 62 3 0 15 -24 27 -52z"/>
<path d="M2939 1317 c-57 -21 -97 -54 -126 -105 -24 -40 -28 -58 -28 -123 0
-67 4 -81 30 -125 19 -30 49 -60 79 -79 44 -26 58 -30 125 -30 65 0 83 4 124
28 63 37 67 51 29 90 l-31 31 -26 -24 c-33 -31 -123 -40 -160 -16 -86 56 -86
196 0 252 36 24 95 21 145 -7 l42 -24 29 35 c16 19 29 38 29 42 0 4 -21 19
-46 34 -55 32 -158 42 -215 21z"/>
<path d="M3435 1301 c-15 -29 -185 -431 -185 -437 0 -2 23 -4 51 -4 l50 0 21
50 21 50 97 0 97 0 21 -50 21 -50 50 0 c28 0 51 4 51 8 0 5 -42 107 -93 228
l-94 219 -47 6 c-43 5 -49 3 -61 -20z m84 -169 c13 -31 25 -63 28 -69 4 -10
-11 -13 -57 -13 -34 0 -60 3 -58 8 2 4 14 35 28 70 14 34 27 62 30 62 3 0 16
-26 29 -58z"/>
<path d="M1010 1090 l0 -230 56 0 55 0 -3 145 c-2 80 -2 145 -1 145 1 0 30
-41 63 -91 45 -66 65 -88 73 -80 7 5 35 46 62 90 28 44 53 80 58 81 4 0 7 -65
7 -145 l0 -145 50 0 50 0 0 230 0 230 -57 0 -58 0 -59 -96 -58 -95 -22 33
c-13 18 -40 61 -61 96 l-38 62 -58 0 -59 0 0 -230z"/>
<path d="M1600 1090 l0 -230 175 0 175 0 0 45 0 45 -126 0 -125 0 3 48 3 47
108 3 107 3 0 44 0 45 -110 0 -110 0 0 45 0 45 125 0 125 0 0 45 0 45 -175 0
-175 0 0 -230z"/>
<path d="M2070 1090 l0 -230 56 0 55 0 -2 73 -2 72 39 0 c37 0 41 -3 88 -72
l50 -73 59 0 59 0 -15 23 c-8 13 -33 50 -56 81 l-40 58 32 22 c94 63 87 203
-13 254 -39 19 -59 22 -177 22 l-133 0 0 -230z m260 122 c27 -22 29 -65 5 -92
-15 -16 -31 -20 -87 -20 l-68 0 0 65 0 65 64 0 c47 0 70 -5 86 -18z"/>
<path d="M2580 1090 l0 -230 55 0 55 0 0 230 0 230 -55 0 -55 0 0 -230z"/>
<path d="M3800 1090 l0 -230 50 0 49 0 3 141 3 141 108 -141 107 -141 45 0 45
0 0 230 0 230 -50 0 -50 0 0 -135 c0 -74 -3 -135 -7 -134 -5 0 -53 60 -108
134 l-100 134 -47 1 -48 0 0 -230z"/>
<path d="M5500 548 c-57 -29 -83 -75 -77 -138 7 -60 44 -92 139 -120 79 -23
114 -49 105 -74 -17 -43 -114 -41 -178 4 l-27 20 -31 -38 -30 -38 41 -27 c49
-32 136 -51 192 -43 90 14 144 78 133 159 -8 60 -47 93 -143 123 -90 27 -114
45 -97 72 21 34 59 38 120 12 l56 -23 24 29 c12 16 23 34 23 41 0 19 -87 55
-148 60 -46 4 -65 0 -102 -19z"/>
<path d="M460 330 l0 -230 175 0 175 0 0 45 0 45 -125 0 -125 0 0 50 0 50 110
0 110 0 0 45 0 45 -110 0 -110 0 0 45 0 45 125 0 125 0 0 45 0 45 -175 0 -175
0 0 -230z"/>
<path d="M920 330 l0 -230 50 0 50 0 0 140 c0 77 3 140 8 139 4 0 54 -63 112
-140 l104 -139 43 0 43 0 0 230 0 230 -50 0 -49 0 -3 -136 -3 -137 -104 137
-104 136 -48 0 -49 0 0 -230z"/>
<path d="M1410 515 l0 -45 70 0 70 0 0 -185 0 -185 50 0 50 0 0 185 0 185 70
0 70 0 0 45 0 45 -190 0 -190 0 0 -45z"/>
<path d="M1900 330 l0 -230 50 0 50 0 0 230 0 230 -50 0 -50 0 0 -230z"/>
<path d="M2080 515 l0 -45 70 0 70 0 0 -185 0 -185 50 0 50 0 2 183 3 182 68
3 67 3 0 44 0 45 -190 0 -190 0 0 -45z"/>
<path d="M2560 330 l0 -230 170 0 170 0 0 45 0 45 -115 0 -115 0 0 185 0 185
-55 0 -55 0 0 -230z"/>
<path d="M2990 330 l0 -230 180 0 180 0 0 45 0 45 -125 0 -125 0 0 50 0 50
105 0 105 0 0 45 0 45 -105 0 -105 0 0 45 0 45 120 0 120 0 0 45 0 45 -175 0
-175 0 0 -230z"/>
<path d="M3460 330 l0 -230 50 0 50 0 0 148 0 147 60 -90 c33 -49 63 -91 68
-93 4 -1 35 39 67 90 l60 93 3 -147 3 -148 49 0 50 0 0 230 0 231 -57 -3 -57
-3 -55 -92 c-31 -51 -58 -92 -61 -92 -3 0 -30 41 -61 92 l-55 92 -57 3 -57 3
0 -231z"/>
<path d="M4030 330 l0 -230 175 0 175 0 0 45 0 45 -126 0 -125 0 3 48 3 47
108 3 107 3 0 44 0 45 -110 0 -110 0 0 45 0 45 125 0 125 0 0 45 0 45 -175 0
-175 0 0 -230z"/>
<path d="M4497 333 l2 -228 50 -3 50 -3 3 141 3 141 105 -140 105 -140 48 0
47 -1 0 230 0 230 -50 0 -50 0 0 -135 c0 -74 -3 -135 -7 -135 -5 0 -53 61
-108 135 l-100 134 -50 1 -50 0 2 -227z"/>
<path d="M4980 515 l0 -44 71 -3 71 -3 -2 -182 -1 -183 56 0 55 0 0 185 0 185
70 0 70 0 0 45 0 45 -195 0 -195 0 0 -45z"/>
</g>
</svg>
